solid OpenSCAD_Model
  facet normal 0 1 0
    outer loop
      vertex -5 0.625 2
      vertex -4.934 0.625 2
      vertex -5 0.625 0
    endloop
  endfacet
  facet normal 0 1 0
    outer loop
      vertex -5 0.625 0
      vertex -4.934 0.625 2
      vertex -4.934 0.625 0
    endloop
  endfacet
  facet normal 0 0 -1
    outer loop
      vertex -6.25 0.313 0
      vertex -5 0.625 0
      vertex -6.25 -0.313 0
    endloop
  endfacet
  facet normal 0 0 -1
    outer loop
      vertex -6.25 -0.313 0
      vertex -5 0.625 0
      vertex -4.934 0.625 0
    endloop
  endfacet
  facet normal 0 0 -1
    outer loop
      vertex -4.891 1.04 0
      vertex -4.802 1.313 0
      vertex -4.934 0.625 0
    endloop
  endfacet
  facet normal 0 0 -1
    outer loop
      vertex -4.802 1.313 0
      vertex -4.859 1.336 0
      vertex -5.894 2.103 0
    endloop
  endfacet
  facet normal 0 0 -1
    outer loop
      vertex -4.802 1.313 0
      vertex -5.894 2.103 0
      vertex -5.654 2.681 0
    endloop
  endfacet
  facet normal 0 0 -1
    outer loop
      vertex -4.802 1.313 0
      vertex -5.654 2.681 0
      vertex -4.38 2.491 0
    endloop
  endfacet
  facet normal 0 0 -1
    outer loop
      vertex -4.802 1.313 0
      vertex -4.38 2.491 0
      vertex -4.934 0.625 0
    endloop
  endfacet
  facet normal 0 0 -1
    outer loop
      vertex -4.934 0.625 0
      vertex -4.38 2.491 0
      vertex -4.319 2.466 0
    endloop
  endfacet
  facet normal 0 0 -1
    outer loop
      vertex -4.934 0.625 0
      vertex -4.319 2.466 0
      vertex -4.045 2.939 0
    endloop
  endfacet
  facet normal 0 0 -1
    outer loop
      vertex -4.934 0.625 0
      vertex -4.045 2.939 0
      vertex -3.939 3.056 0
    endloop
  endfacet
  facet normal 0 0 -1
    outer loop
      vertex -3.939 3.056 0
      vertex -3.977 3.094 0
      vertex -4.641 4.198 0
    endloop
  endfacet
  facet normal 0 0 -1
    outer loop
      vertex -3.939 3.056 0
      vertex -4.641 4.198 0
      vertex -4.198 4.641 0
    endloop
  endfacet
  facet normal 0 0 -1
    outer loop
      vertex -3.939 3.056 0
      vertex -4.198 4.641 0
      vertex -3.094 3.977 0
    endloop
  endfacet
  facet normal 0 0 -1
    outer loop
      vertex -3.939 3.056 0
      vertex -3.094 3.977 0
      vertex -4.934 0.625 0
    endloop
  endfacet
  facet normal 0 0 -1
    outer loop
      vertex -4.934 0.625 0
      vertex -3.094 3.977 0
      vertex -3.049 3.932 0
    endloop
  endfacet
  facet normal 0 0 -1
    outer loop
      vertex -4.934 0.625 0
      vertex -3.049 3.932 0
      vertex -2.5 4.33 0
    endloop
  endfacet
  facet normal 0 0 -1
    outer loop
      vertex -4.934 0.625 0
      vertex -2.5 4.33 0
      vertex -2.475 4.341 0
    endloop
  endfacet
  facet normal 0 0 -1
    outer loop
      vertex -2.475 4.341 0
      vertex -2.491 4.38 0
      vertex -2.681 5.654 0
    endloop
  endfacet
  facet normal 0 0 -1
    outer loop
      vertex -2.475 4.341 0
      vertex -2.681 5.654 0
      vertex -2.103 5.894 0
    endloop
  endfacet
  facet normal 0 0 -1
    outer loop
      vertex -2.475 4.341 0
      vertex -2.103 5.894 0
      vertex -1.336 4.859 0
    endloop
  endfacet
  facet normal 0 0 -1
    outer loop
      vertex -2.475 4.341 0
      vertex -1.336 4.859 0
      vertex -4.934 0.625 0
    endloop
  endfacet
  facet normal 0 0 -1
    outer loop
      vertex -4.934 0.625 0
      vertex -1.336 4.859 0
      vertex -1.313 4.804 0
    endloop
  endfacet
  facet normal 0 0 -1
    outer loop
      vertex -4.934 0.625 0
      vertex -1.313 4.804 0
      vertex -0.625 4.951 0
    endloop
  endfacet
  facet normal 0 0 -1
    outer loop
      vertex -0.625 4.951 0
      vertex -0.625 5 0
      vertex -0.313 6.25 0
    endloop
  endfacet
  facet normal 0 0 -1
    outer loop
      vertex -0.625 4.951 0
      vertex -0.313 6.25 0
      vertex 0.313 6.25 0
    endloop
  endfacet
  facet normal 0 0 -1
    outer loop
      vertex -0.625 4.951 0
      vertex 0.313 6.25 0
      vertex 0.625 5 0
    endloop
  endfacet
  facet normal 0 0 -1
    outer loop
      vertex -0.625 4.951 0
      vertex 0.625 5 0
      vertex -4.934 0.625 0
    endloop
  endfacet
  facet normal 0 0 -1
    outer loop
      vertex -4.934 0.625 0
      vertex 0.625 5 0
      vertex 0.625 4.951 0
    endloop
  endfacet
  facet normal 0 0 -1
    outer loop
      vertex -4.934 0.625 0
      vertex 0.625 4.951 0
      vertex 1.313 4.804 0
    endloop
  endfacet
  facet normal 0 0 -1
    outer loop
      vertex -4.934 0.625 0
      vertex 1.313 4.804 0
      vertex -6.25 -0.313 0
    endloop
  endfacet
  facet normal 0 0 -1
    outer loop
      vertex 1.313 4.804 0
      vertex 1.336 4.859 0
      vertex 2.103 5.894 0
    endloop
  endfacet
  facet normal 0 0 -1
    outer loop
      vertex 1.313 4.804 0
      vertex 2.103 5.894 0
      vertex 2.681 5.654 0
    endloop
  endfacet
  facet normal 0 0 -1
    outer loop
      vertex 1.313 4.804 0
      vertex 2.681 5.654 0
      vertex -6.25 -0.313 0
    endloop
  endfacet
  facet normal 0 0 -1
    outer loop
      vertex -6.25 -0.313 0
      vertex 2.681 5.654 0
      vertex 2.491 4.38 0
    endloop
  endfacet
  facet normal 0 0 -1
    outer loop
      vertex -6.25 -0.313 0
      vertex 2.491 4.38 0
      vertex 2.475 4.341 0
    endloop
  endfacet
  facet normal 0 0 -1
    outer loop
      vertex -6.25 -0.313 0
      vertex 2.475 4.341 0
      vertex 2.5 4.33 0
    endloop
  endfacet
  facet normal 0 0 -1
    outer loop
      vertex 2.5 4.33 0
      vertex 3.049 3.932 0
      vertex -6.25 -0.313 0
    endloop
  endfacet
  facet normal 0 0 -1
    outer loop
      vertex 3.049 3.932 0
      vertex 3.094 3.977 0
      vertex 4.198 4.641 0
    endloop
  endfacet
  facet normal 0 0 -1
    outer loop
      vertex 3.049 3.932 0
      vertex 4.198 4.641 0
      vertex 4.641 4.198 0
    endloop
  endfacet
  facet normal 0 0 -1
    outer loop
      vertex 3.049 3.932 0
      vertex 4.641 4.198 0
      vertex -6.25 -0.313 0
    endloop
  endfacet
  facet normal 0 0 -1
    outer loop
      vertex 0.241 1.985 0
      vertex 4.641 4.198 0
      vertex 3.977 3.094 0
    endloop
  endfacet
  facet normal 0 0 -1
    outer loop
      vertex 0.241 1.985 0
      vertex 3.977 3.094 0
      vertex 3.939 3.056 0
    endloop
  endfacet
  facet normal 0 0 -1
    outer loop
      vertex 4.319 2.466 0
      vertex 4.38 2.491 0
      vertex 5.654 2.681 0
    endloop
  endfacet
  facet normal 0 0 -1
    outer loop
      vertex 0.241 1.985 0
      vertex 3.939 3.056 0
      vertex 4.045 2.939 0
    endloop
  endfacet
  facet normal 0 0 -1
    outer loop
      vertex 1.497 1.326 0
      vertex 5.654 2.681 0
      vertex 5.894 2.103 0
    endloop
  endfacet
  facet normal 0 0 -1
    outer loop
      vertex 1.771 0.929 0
      vertex 5.894 2.103 0
      vertex 4.859 1.336 0
    endloop
  endfacet
  facet normal 0 0 -1
    outer loop
      vertex 2 0 0
      vertex 6.25 -0.313 0
      vertex 1.942 -0.479 0
    endloop
  endfacet
  facet normal 0 0 -1
    outer loop
      vertex 1.942 -0.479 0
      vertex 5 -0.625 0
      vertex 4.934 -0.625 0
    endloop
  endfacet
  facet normal 0 0 -1
    outer loop
      vertex 1.942 0.479 0
      vertex 4.891 1.04 0
      vertex 4.934 0.625 0
    endloop
  endfacet
  facet normal 0 0 -1
    outer loop
      vertex 2 0 0
      vertex 6.25 0.313 0
      vertex 6.25 -0.313 0
    endloop
  endfacet
  facet normal 0 0 -1
    outer loop
      vertex 1.942 -0.479 0
      vertex 6.25 -0.313 0
      vertex 5 -0.625 0
    endloop
  endfacet
  facet normal 0 0 -1
    outer loop
      vertex 1.771 -0.929 0
      vertex 4.891 -1.04 0
      vertex 4.802 -1.313 0
    endloop
  endfacet
  facet normal 0 0 -1
    outer loop
      vertex 1.771 -0.929 0
      vertex 4.859 -1.336 0
      vertex 1.497 -1.326 0
    endloop
  endfacet
  facet normal 0 0 -1
    outer loop
      vertex 1.497 -1.326 0
      vertex 4.859 -1.336 0
      vertex 5.894 -2.103 0
    endloop
  endfacet
  facet normal 0 0 -1
    outer loop
      vertex 1.136 -1.646 0
      vertex 5.894 -2.103 0
      vertex 5.654 -2.681 0
    endloop
  endfacet
  facet normal 0 0 -1
    outer loop
      vertex 4.319 -2.466 0
      vertex 5.654 -2.681 0
      vertex 4.38 -2.491 0
    endloop
  endfacet
  facet normal 0 0 -1
    outer loop
      vertex 1.942 0.479 0
      vertex 4.934 0.625 0
      vertex 5 0.625 0
    endloop
  endfacet
  facet normal 0 0 -1
    outer loop
      vertex -0.709 -1.87 0
      vertex 3.977 -3.094 0
      vertex 4.641 -4.198 0
    endloop
  endfacet
  facet normal 0 0 -1
    outer loop
      vertex 3.094 -3.977 0
      vertex 4.641 -4.198 0
      vertex 4.198 -4.641 0
    endloop
  endfacet
  facet normal 0 0 -1
    outer loop
      vertex 3.049 -3.932 0
      vertex 4.641 -4.198 0
      vertex 3.094 -3.977 0
    endloop
  endfacet
  facet normal 0 0 -1
    outer loop
      vertex 1.313 -4.804 0
      vertex 2.681 -5.654 0
      vertex 1.336 -4.859 0
    endloop
  endfacet
  facet normal 0 0 -1
    outer loop
      vertex 1.313 -4.804 0
      vertex 2.491 -4.38 0
      vertex 2.681 -5.654 0
    endloop
  endfacet
  facet normal 0 0 -1
    outer loop
      vertex 1.336 -4.859 0
      vertex 2.681 -5.654 0
      vertex 2.103 -5.894 0
    endloop
  endfacet
  facet normal 0 0 -1
    outer loop
      vertex -2.103 -5.894 0
      vertex -2.491 -4.38 0
      vertex -2.475 -4.341 0
    endloop
  endfacet
  facet normal 0 0 -1
    outer loop
      vertex -4.891 -1.04 0
      vertex 2.491 -4.38 0
      vertex 1.313 -4.804 0
    endloop
  endfacet
  facet normal 0 0 -1
    outer loop
      vertex -0.709 -1.87 0
      vertex -4.934 -0.625 0
      vertex -1.136 -1.646 0
    endloop
  endfacet
  facet normal 0 0 -1
    outer loop
      vertex -0.625 -5 0
      vertex 0.313 -6.25 0
      vertex -0.313 -6.25 0
    endloop
  endfacet
  facet normal 0 0 -1
    outer loop
      vertex -0.625 -5 0
      vertex 0.625 -5 0
      vertex 0.313 -6.25 0
    endloop
  endfacet
  facet normal 0 0 -1
    outer loop
      vertex -2.103 -5.894 0
      vertex -2.475 -4.341 0
      vertex -1.336 -4.859 0
    endloop
  endfacet
  facet normal 0 0 -1
    outer loop
      vertex -0.625 -4.951 0
      vertex 0.625 -5 0
      vertex -0.625 -5 0
    endloop
  endfacet
  facet normal 0 0 -1
    outer loop
      vertex -4.891 -1.04 0
      vertex 0.625 -4.951 0
      vertex 0.625 -5 0
    endloop
  endfacet
  facet normal 0 0 -1
    outer loop
      vertex -4.859 -1.336 0
      vertex 0.625 -5 0
      vertex -0.625 -4.951 0
    endloop
  endfacet
  facet normal 0 0 -1
    outer loop
      vertex -4.891 -1.04 0
      vertex 0.625 -5 0
      vertex -4.802 -1.313 0
    endloop
  endfacet
  facet normal 0 0 -1
    outer loop
      vertex -2.491 -4.38 0
      vertex -2.103 -5.894 0
      vertex -2.681 -5.654 0
    endloop
  endfacet
  facet normal 0 0 -1
    outer loop
      vertex -4.934 -0.625 0
      vertex -0.709 -1.87 0
      vertex 4.641 -4.198 0
    endloop
  endfacet
  facet normal 0 0 -1
    outer loop
      vertex -4.859 -1.336 0
      vertex -1.313 -4.804 0
      vertex -1.336 -4.859 0
    endloop
  endfacet
  facet normal 0 0 -1
    outer loop
      vertex 0.241 -1.985 0
      vertex 4.045 -2.939 0
      vertex 3.939 -3.056 0
    endloop
  endfacet
  facet normal 0 0 -1
    outer loop
      vertex -4.319 -2.466 0
      vertex -3.939 -3.056 0
      vertex -4.045 -2.939 0
    endloop
  endfacet
  facet normal 0 0 -1
    outer loop
      vertex 0.241 -1.985 0
      vertex 3.939 -3.056 0
      vertex 3.977 -3.094 0
    endloop
  endfacet
  facet normal 0 0 -1
    outer loop
      vertex -4.319 -2.466 0
      vertex -3.049 -3.932 0
      vertex -3.094 -3.977 0
    endloop
  endfacet
  facet normal 0 0 -1
    outer loop
      vertex -3.049 -3.932 0
      vertex -4.319 -2.466 0
      vertex -2.5 -4.33 0
    endloop
  endfacet
  facet normal 0 0 -1
    outer loop
      vertex -3.977 -3.094 0
      vertex -4.198 -4.641 0
      vertex -4.641 -4.198 0
    endloop
  endfacet
  facet normal 0 0 -1
    outer loop
      vertex -4.319 -2.466 0
      vertex -3.094 -3.977 0
      vertex -3.939 -3.056 0
    endloop
  endfacet
  facet normal 0 0 -1
    outer loop
      vertex -3.939 -3.056 0
      vertex -3.094 -3.977 0
      vertex -3.977 -3.094 0
    endloop
  endfacet
  facet normal 0 0 -1
    outer loop
      vertex -4.859 -1.336 0
      vertex -2.475 -4.341 0
      vertex -2.5 -4.33 0
    endloop
  endfacet
  facet normal 0 0 -1
    outer loop
      vertex -4.859 -1.336 0
      vertex -4.319 -2.466 0
      vertex -4.38 -2.491 0
    endloop
  endfacet
  facet normal 0 0 -1
    outer loop
      vertex -4.859 -1.336 0
      vertex -1.336 -4.859 0
      vertex -2.475 -4.341 0
    endloop
  endfacet
  facet normal 0 0 -1
    outer loop
      vertex -4.198 -4.641 0
      vertex -3.977 -3.094 0
      vertex -3.094 -3.977 0
    endloop
  endfacet
  facet normal 0 0 -1
    outer loop
      vertex -4.934 -0.625 0
      vertex 4.641 -4.198 0
      vertex 3.049 -3.932 0
    endloop
  endfacet
  facet normal 0 0 -1
    outer loop
      vertex -4.859 -1.336 0
      vertex -2.5 -4.33 0
      vertex -4.319 -2.466 0
    endloop
  endfacet
  facet normal 0 0 -1
    outer loop
      vertex -4.859 -1.336 0
      vertex -0.625 -4.951 0
      vertex -1.313 -4.804 0
    endloop
  endfacet
  facet normal 0 0 -1
    outer loop
      vertex -4.934 -0.625 0
      vertex 3.049 -3.932 0
      vertex 2.5 -4.33 0
    endloop
  endfacet
  facet normal 0 0 -1
    outer loop
      vertex -4.802 -1.313 0
      vertex 0.625 -5 0
      vertex -4.859 -1.336 0
    endloop
  endfacet
  facet normal 0 0 -1
    outer loop
      vertex -4.891 -1.04 0
      vertex 1.313 -4.804 0
      vertex 0.625 -4.951 0
    endloop
  endfacet
  facet normal 0 0 -1
    outer loop
      vertex 0.241 -1.985 0
      vertex 3.977 -3.094 0
      vertex -0.241 -1.985 0
    endloop
  endfacet
  facet normal 0 0 -1
    outer loop
      vertex -2 0 0
      vertex -6.25 -0.313 0
      vertex -1.942 0.479 0
    endloop
  endfacet
  facet normal 0 0 -1
    outer loop
      vertex -6.25 -0.313 0
      vertex -4.934 -0.625 0
      vertex -5 -0.625 0
    endloop
  endfacet
  facet normal 0 0 -1
    outer loop
      vertex 1.771 0.929 0
      vertex 4.859 1.336 0
      vertex 4.802 1.313 0
    endloop
  endfacet
  facet normal 0 0 -1
    outer loop
      vertex -1.942 -0.479 0
      vertex -6.25 -0.313 0
      vertex -2 0 0
    endloop
  endfacet
  facet normal 0 0 -1
    outer loop
      vertex -1.771 -0.929 0
      vertex -6.25 -0.313 0
      vertex -1.942 -0.479 0
    endloop
  endfacet
  facet normal 0 0 -1
    outer loop
      vertex -1.497 -1.326 0
      vertex -6.25 -0.313 0
      vertex -1.771 -0.929 0
    endloop
  endfacet
  facet normal 0 0 -1
    outer loop
      vertex 0.709 -1.87 0
      vertex 4.045 -2.939 0
      vertex 0.241 -1.985 0
    endloop
  endfacet
  facet normal 0 0 -1
    outer loop
      vertex -0.241 -1.985 0
      vertex 3.977 -3.094 0
      vertex -0.709 -1.87 0
    endloop
  endfacet
  facet normal 0 0 -1
    outer loop
      vertex 1.771 0.929 0
      vertex 4.891 1.04 0
      vertex 1.942 0.479 0
    endloop
  endfacet
  facet normal 0 0 -1
    outer loop
      vertex 1.771 0.929 0
      vertex 4.802 1.313 0
      vertex 4.891 1.04 0
    endloop
  endfacet
  facet normal 0 0 -1
    outer loop
      vertex 1.497 1.326 0
      vertex 5.894 2.103 0
      vertex 1.771 0.929 0
    endloop
  endfacet
  facet normal 0 0 -1
    outer loop
      vertex 1.136 -1.646 0
      vertex 4.319 -2.466 0
      vertex 0.709 -1.87 0
    endloop
  endfacet
  facet normal 0 0 -1
    outer loop
      vertex 1.771 -0.929 0
      vertex 4.802 -1.313 0
      vertex 4.859 -1.336 0
    endloop
  endfacet
  facet normal 0 0 -1
    outer loop
      vertex 1.497 -1.326 0
      vertex 5.894 -2.103 0
      vertex 1.136 -1.646 0
    endloop
  endfacet
  facet normal 0 0 -1
    outer loop
      vertex 1.136 -1.646 0
      vertex 5.654 -2.681 0
      vertex 4.319 -2.466 0
    endloop
  endfacet
  facet normal 0 0 -1
    outer loop
      vertex 1.942 -0.479 0
      vertex 4.891 -1.04 0
      vertex 1.771 -0.929 0
    endloop
  endfacet
  facet normal 0 0 -1
    outer loop
      vertex 1.942 -0.479 0
      vertex 4.934 -0.625 0
      vertex 4.891 -1.04 0
    endloop
  endfacet
  facet normal 0 0 -1
    outer loop
      vertex 1.942 0.479 0
      vertex 6.25 0.313 0
      vertex 2 0 0
    endloop
  endfacet
  facet normal 0 0 -1
    outer loop
      vertex 1.942 0.479 0
      vertex 5 0.625 0
      vertex 6.25 0.313 0
    endloop
  endfacet
  facet normal 0 0 -1
    outer loop
      vertex 0.241 1.985 0
      vertex 4.045 2.939 0
      vertex 0.709 1.87 0
    endloop
  endfacet
  facet normal 0 0 -1
    outer loop
      vertex 1.136 1.646 0
      vertex 4.319 2.466 0
      vertex 5.654 2.681 0
    endloop
  endfacet
  facet normal 0 0 -1
    outer loop
      vertex 4.045 2.939 0
      vertex 4.319 2.466 0
      vertex 1.136 1.646 0
    endloop
  endfacet
  facet normal 0 0 -1
    outer loop
      vertex 4.045 2.939 0
      vertex 1.136 1.646 0
      vertex 0.709 1.87 0
    endloop
  endfacet
  facet normal 0 0 -1
    outer loop
      vertex -0.241 1.985 0
      vertex 4.641 4.198 0
      vertex 0.241 1.985 0
    endloop
  endfacet
  facet normal 0 0 -1
    outer loop
      vertex -1.497 1.326 0
      vertex -6.25 -0.313 0
      vertex -1.136 1.646 0
    endloop
  endfacet
  facet normal 0 0 -1
    outer loop
      vertex -0.709 1.87 0
      vertex 4.641 4.198 0
      vertex -0.241 1.985 0
    endloop
  endfacet
  facet normal 0 0 -1
    outer loop
      vertex -6.25 -0.313 0
      vertex 4.641 4.198 0
      vertex -0.709 1.87 0
    endloop
  endfacet
  facet normal 0 0 -1
    outer loop
      vertex -6.25 -0.313 0
      vertex -0.709 1.87 0
      vertex -1.136 1.646 0
    endloop
  endfacet
  facet normal 0 0 -1
    outer loop
      vertex -1.771 0.929 0
      vertex -6.25 -0.313 0
      vertex -1.497 1.326 0
    endloop
  endfacet
  facet normal 0 0 -1
    outer loop
      vertex -1.942 0.479 0
      vertex -6.25 -0.313 0
      vertex -1.771 0.929 0
    endloop
  endfacet
  facet normal 0 0 -1
    outer loop
      vertex 1.136 1.646 0
      vertex 5.654 2.681 0
      vertex 1.497 1.326 0
    endloop
  endfacet
  facet normal 0 0 -1
    outer loop
      vertex -1.497 -1.326 0
      vertex -4.934 -0.625 0
      vertex -6.25 -0.313 0
    endloop
  endfacet
  facet normal 0 0 -1
    outer loop
      vertex -1.136 -1.646 0
      vertex -4.934 -0.625 0
      vertex -1.497 -1.326 0
    endloop
  endfacet
  facet normal 0 0 -1
    outer loop
      vertex 4.045 -2.939 0
      vertex 0.709 -1.87 0
      vertex 4.319 -2.466 0
    endloop
  endfacet
  facet normal 0 0 -1
    outer loop
      vertex -4.859 -1.336 0
      vertex -4.38 -2.491 0
      vertex -5.654 -2.681 0
    endloop
  endfacet
  facet normal 0 0 -1
    outer loop
      vertex -4.859 -1.336 0
      vertex -5.654 -2.681 0
      vertex -5.894 -2.103 0
    endloop
  endfacet
  facet normal 0 0 -1
    outer loop
      vertex -4.934 -0.625 0
      vertex 2.5 -4.33 0
      vertex 2.475 -4.341 0
    endloop
  endfacet
  facet normal 0 0 -1
    outer loop
      vertex -4.934 -0.625 0
      vertex 2.475 -4.341 0
      vertex 2.491 -4.38 0
    endloop
  endfacet
  facet normal 0 0 -1
    outer loop
      vertex -4.934 -0.625 0
      vertex 2.491 -4.38 0
      vertex -4.891 -1.04 0
    endloop
  endfacet
  facet normal -0.994675 0.103063 0
    outer loop
      vertex -4.934 0.625 2
      vertex -4.891 1.04 2
      vertex -4.934 0.625 0
    endloop
  endfacet
  facet normal -0.994675 0.103063 0
    outer loop
      vertex -4.934 0.625 0
      vertex -4.891 1.04 2
      vertex -4.891 1.04 0
    endloop
  endfacet
  facet normal -0.24217 0.970234 0
    outer loop
      vertex -6.25 0.313 2
      vertex -5 0.625 2
      vertex -6.25 0.313 0
    endloop
  endfacet
  facet normal -0.24217 0.970234 0
    outer loop
      vertex -6.25 0.313 0
      vertex -5 0.625 2
      vertex -5 0.625 0
    endloop
  endfacet
  facet normal 0 0 1
    outer loop
      vertex -6.25 -0.313 2
      vertex -5 -0.625 2
      vertex -4.934 -0.625 2
    endloop
  endfacet
  facet normal 0 0 1
    outer loop
      vertex 0.241 -1.985 2
      vertex 3.977 -3.094 2
      vertex 3.939 -3.056 2
    endloop
  endfacet
  facet normal 0 0 1
    outer loop
      vertex -4.934 -0.625 2
      vertex -4.891 -1.04 2
      vertex -4.802 -1.313 2
    endloop
  endfacet
  facet normal 0 0 1
    outer loop
      vertex -4.934 -0.625 2
      vertex -4.802 -1.313 2
      vertex -4.38 -2.491 2
    endloop
  endfacet
  facet normal 0 0 1
    outer loop
      vertex -4.802 -1.313 2
      vertex -4.859 -1.336 2
      vertex -5.894 -2.103 2
    endloop
  endfacet
  facet normal 0 0 1
    outer loop
      vertex -4.802 -1.313 2
      vertex -5.894 -2.103 2
      vertex -5.654 -2.681 2
    endloop
  endfacet
  facet normal 0 0 1
    outer loop
      vertex -4.802 -1.313 2
      vertex -5.654 -2.681 2
      vertex -4.38 -2.491 2
    endloop
  endfacet
  facet normal 0 0 1
    outer loop
      vertex -4.934 -0.625 2
      vertex -4.319 -2.466 2
      vertex -4.045 -2.939 2
    endloop
  endfacet
  facet normal 0 0 1
    outer loop
      vertex -4.934 -0.625 2
      vertex -4.38 -2.491 2
      vertex -4.319 -2.466 2
    endloop
  endfacet
  facet normal 0 0 1
    outer loop
      vertex -4.934 -0.625 2
      vertex -3.939 -3.056 2
      vertex -3.094 -3.977 2
    endloop
  endfacet
  facet normal 0 0 1
    outer loop
      vertex -4.934 -0.625 2
      vertex -4.045 -2.939 2
      vertex -3.939 -3.056 2
    endloop
  endfacet
  facet normal 0 0 1
    outer loop
      vertex -3.939 -3.056 2
      vertex -3.977 -3.094 2
      vertex -4.641 -4.198 2
    endloop
  endfacet
  facet normal 0 0 1
    outer loop
      vertex -3.939 -3.056 2
      vertex -4.641 -4.198 2
      vertex -4.198 -4.641 2
    endloop
  endfacet
  facet normal 0 0 1
    outer loop
      vertex -3.939 -3.056 2
      vertex -4.198 -4.641 2
      vertex -3.094 -3.977 2
    endloop
  endfacet
  facet normal 0 0 1
    outer loop
      vertex -4.934 -0.625 2
      vertex -3.049 -3.932 2
      vertex -2.5 -4.33 2
    endloop
  endfacet
  facet normal 0 0 1
    outer loop
      vertex -4.934 -0.625 2
      vertex -3.094 -3.977 2
      vertex -3.049 -3.932 2
    endloop
  endfacet
  facet normal 0 0 1
    outer loop
      vertex -4.934 -0.625 2
      vertex -2.475 -4.341 2
      vertex -1.336 -4.859 2
    endloop
  endfacet
  facet normal 0 0 1
    outer loop
      vertex -4.934 -0.625 2
      vertex -2.5 -4.33 2
      vertex -2.475 -4.341 2
    endloop
  endfacet
  facet normal 0 0 1
    outer loop
      vertex -2.475 -4.341 2
      vertex -2.491 -4.38 2
      vertex -2.681 -5.654 2
    endloop
  endfacet
  facet normal 0 0 1
    outer loop
      vertex -2.475 -4.341 2
      vertex -2.681 -5.654 2
      vertex -2.103 -5.894 2
    endloop
  endfacet
  facet normal 0 0 1
    outer loop
      vertex -2.475 -4.341 2
      vertex -2.103 -5.894 2
      vertex -1.336 -4.859 2
    endloop
  endfacet
  facet normal 0 0 1
    outer loop
      vertex -4.934 -0.625 2
      vertex -1.313 -4.804 2
      vertex -0.625 -4.951 2
    endloop
  endfacet
  facet normal 0 0 1
    outer loop
      vertex -4.934 -0.625 2
      vertex -1.336 -4.859 2
      vertex -1.313 -4.804 2
    endloop
  endfacet
  facet normal 0 0 1
    outer loop
      vertex -4.934 -0.625 2
      vertex -0.625 -4.951 2
      vertex 0.625 -5 2
    endloop
  endfacet
  facet normal 0 0 1
    outer loop
      vertex -0.625 -4.951 2
      vertex -0.625 -5 2
      vertex -0.313 -6.25 2
    endloop
  endfacet
  facet normal 0 0 1
    outer loop
      vertex -0.625 -4.951 2
      vertex -0.313 -6.25 2
      vertex 0.313 -6.25 2
    endloop
  endfacet
  facet normal 0 0 1
    outer loop
      vertex -0.625 -4.951 2
      vertex 0.313 -6.25 2
      vertex 0.625 -5 2
    endloop
  endfacet
  facet normal 0 0 1
    outer loop
      vertex -4.934 -0.625 2
      vertex 0.625 -4.951 2
      vertex 1.313 -4.804 2
    endloop
  endfacet
  facet normal 0 0 1
    outer loop
      vertex -4.934 -0.625 2
      vertex 0.625 -5 2
      vertex 0.625 -4.951 2
    endloop
  endfacet
  facet normal 0 0 1
    outer loop
      vertex -4.934 -0.625 2
      vertex 1.313 -4.804 2
      vertex 2.681 -5.654 2
    endloop
  endfacet
  facet normal 0 0 1
    outer loop
      vertex 1.313 -4.804 2
      vertex 1.336 -4.859 2
      vertex 2.103 -5.894 2
    endloop
  endfacet
  facet normal 0 0 1
    outer loop
      vertex 1.313 -4.804 2
      vertex 2.103 -5.894 2
      vertex 2.681 -5.654 2
    endloop
  endfacet
  facet normal 0 0 1
    outer loop
      vertex -4.934 -0.625 2
      vertex 2.681 -5.654 2
      vertex 2.491 -4.38 2
    endloop
  endfacet
  facet normal 0 0 1
    outer loop
      vertex -4.934 -0.625 2
      vertex 2.475 -4.341 2
      vertex 2.5 -4.33 2
    endloop
  endfacet
  facet normal 0 0 1
    outer loop
      vertex -4.934 -0.625 2
      vertex 2.491 -4.38 2
      vertex 2.475 -4.341 2
    endloop
  endfacet
  facet normal 0 0 1
    outer loop
      vertex -4.934 -0.625 2
      vertex 2.5 -4.33 2
      vertex 3.049 -3.932 2
    endloop
  endfacet
  facet normal 0 0 1
    outer loop
      vertex -4.934 -0.625 2
      vertex 3.049 -3.932 2
      vertex 4.641 -4.198 2
    endloop
  endfacet
  facet normal 0 0 1
    outer loop
      vertex 3.049 -3.932 2
      vertex 3.094 -3.977 2
      vertex 4.198 -4.641 2
    endloop
  endfacet
  facet normal 0 0 1
    outer loop
      vertex 3.049 -3.932 2
      vertex 4.198 -4.641 2
      vertex 4.641 -4.198 2
    endloop
  endfacet
  facet normal 0 0 1
    outer loop
      vertex -0.241 -1.985 2
      vertex 4.641 -4.198 2
      vertex 3.977 -3.094 2
    endloop
  endfacet
  facet normal 0 0 1
    outer loop
      vertex 0.241 -1.985 2
      vertex 3.939 -3.056 2
      vertex 4.045 -2.939 2
    endloop
  endfacet
  facet normal 0 0 1
    outer loop
      vertex -0.709 -1.87 2
      vertex -1.136 -1.646 2
      vertex -4.934 -0.625 2
    endloop
  endfacet
  facet normal 0 0 1
    outer loop
      vertex 0.709 -1.87 2
      vertex 4.045 -2.939 2
      vertex 4.319 -2.466 2
    endloop
  endfacet
  facet normal 0 0 1
    outer loop
      vertex 0.241 -1.985 2
      vertex -0.241 -1.985 2
      vertex 3.977 -3.094 2
    endloop
  endfacet
  facet normal 0 0 1
    outer loop
      vertex 4.319 -2.466 2
      vertex 4.38 -2.491 2
      vertex 5.654 -2.681 2
    endloop
  endfacet
  facet normal 0 0 1
    outer loop
      vertex 1.136 -1.646 2
      vertex 5.654 -2.681 2
      vertex 5.894 -2.103 2
    endloop
  endfacet
  facet normal 0 0 1
    outer loop
      vertex 1.497 -1.326 2
      vertex 5.894 -2.103 2
      vertex 4.859 -1.336 2
    endloop
  endfacet
  facet normal 0 0 1
    outer loop
      vertex 1.771 -0.929 2
      vertex 4.802 -1.313 2
      vertex 4.891 -1.04 2
    endloop
  endfacet
  facet normal 0 0 1
    outer loop
      vertex 1.942 -0.479 2
      vertex 4.891 -1.04 2
      vertex 4.934 -0.625 2
    endloop
  endfacet
  facet normal 0 0 1
    outer loop
      vertex 1.771 -0.929 2
      vertex 1.497 -1.326 2
      vertex 4.859 -1.336 2
    endloop
  endfacet
  facet normal 0 0 1
    outer loop
      vertex 1.942 -0.479 2
      vertex 5 -0.625 2
      vertex 6.25 -0.313 2
    endloop
  endfacet
  facet normal 0 0 1
    outer loop
      vertex 2 0 2
      vertex 6.25 -0.313 2
      vertex 6.25 0.313 2
    endloop
  endfacet
  facet normal 0 0 1
    outer loop
      vertex 2 0 2
      vertex 1.942 -0.479 2
      vertex 6.25 -0.313 2
    endloop
  endfacet
  facet normal 0 0 1
    outer loop
      vertex 1.942 0.479 2
      vertex 4.934 0.625 2
      vertex 4.891 1.04 2
    endloop
  endfacet
  facet normal 0 0 1
    outer loop
      vertex 1.942 0.479 2
      vertex 2 0 2
      vertex 6.25 0.313 2
    endloop
  endfacet
  facet normal 0 0 1
    outer loop
      vertex 1.771 0.929 2
      vertex 1.942 0.479 2
      vertex 4.891 1.04 2
    endloop
  endfacet
  facet normal 0 0 1
    outer loop
      vertex 1.497 1.326 2
      vertex 5.894 2.103 2
      vertex 5.654 2.681 2
    endloop
  endfacet
  facet normal 0 0 1
    outer loop
      vertex 4.319 2.466 2
      vertex 5.654 2.681 2
      vertex 4.38 2.491 2
    endloop
  endfacet
  facet normal 0 0 1
    outer loop
      vertex -4.934 0.625 2
      vertex -5 0.625 2
      vertex -6.25 -0.313 2
    endloop
  endfacet
  facet normal 0 0 1
    outer loop
      vertex 0.241 1.985 2
      vertex 4.045 2.939 2
      vertex 3.939 3.056 2
    endloop
  endfacet
  facet normal 0 0 1
    outer loop
      vertex -0.709 1.87 2
      vertex -0.241 1.985 2
      vertex 4.641 4.198 2
    endloop
  endfacet
  facet normal 0 0 1
    outer loop
      vertex 0.241 1.985 2
      vertex 3.977 3.094 2
      vertex 4.641 4.198 2
    endloop
  endfacet
  facet normal 0 0 1
    outer loop
      vertex 3.094 3.977 2
      vertex 4.641 4.198 2
      vertex 4.198 4.641 2
    endloop
  endfacet
  facet normal 0 0 1
    outer loop
      vertex 3.049 3.932 2
      vertex 4.641 4.198 2
      vertex 3.094 3.977 2
    endloop
  endfacet
  facet normal 0 0 1
    outer loop
      vertex 1.313 4.804 2
      vertex -4.934 0.625 2
      vertex -6.25 -0.313 2
    endloop
  endfacet
  facet normal 0 0 1
    outer loop
      vertex -6.25 -0.313 2
      vertex 4.641 4.198 2
      vertex 3.049 3.932 2
    endloop
  endfacet
  facet normal 0 0 1
    outer loop
      vertex -6.25 -0.313 2
      vertex 2.5 4.33 2
      vertex 2.475 4.341 2
    endloop
  endfacet
  facet normal 0 0 1
    outer loop
      vertex -6.25 -0.313 2
      vertex 2.475 4.341 2
      vertex 2.491 4.38 2
    endloop
  endfacet
  facet normal 0 0 1
    outer loop
      vertex -6.25 -0.313 2
      vertex 2.491 4.38 2
      vertex 2.681 5.654 2
    endloop
  endfacet
  facet normal 0 0 1
    outer loop
      vertex 1.336 4.859 2
      vertex 2.681 5.654 2
      vertex 2.103 5.894 2
    endloop
  endfacet
  facet normal 0 0 1
    outer loop
      vertex -0.313 6.25 2
      vertex -0.625 5 2
      vertex 0.313 6.25 2
    endloop
  endfacet
  facet normal 0 0 1
    outer loop
      vertex 1.313 4.804 2
      vertex 2.681 5.654 2
      vertex 1.336 4.859 2
    endloop
  endfacet
  facet normal 0 0 1
    outer loop
      vertex -1.336 4.859 2
      vertex -2.103 5.894 2
      vertex -2.491 4.38 2
    endloop
  endfacet
  facet normal 0 0 1
    outer loop
      vertex -6.25 -0.313 2
      vertex 2.681 5.654 2
      vertex 1.313 4.804 2
    endloop
  endfacet
  facet normal 0 0 1
    outer loop
      vertex 1.136 -1.646 2
      vertex 4.319 -2.466 2
      vertex 5.654 -2.681 2
    endloop
  endfacet
  facet normal 0 0 1
    outer loop
      vertex -0.625 5 2
      vertex 0.625 5 2
      vertex 0.313 6.25 2
    endloop
  endfacet
  facet normal 0 0 1
    outer loop
      vertex -1.336 4.859 2
      vertex -2.475 4.341 2
      vertex -4.859 1.336 2
    endloop
  endfacet
  facet normal 0 0 1
    outer loop
      vertex -0.625 4.951 2
      vertex 0.625 5 2
      vertex -0.625 5 2
    endloop
  endfacet
  facet normal 0 0 1
    outer loop
      vertex -1.336 4.859 2
      vertex -4.859 1.336 2
      vertex -4.802 1.313 2
    endloop
  endfacet
  facet normal 0 0 1
    outer loop
      vertex -5 0.625 2
      vertex -6.25 0.313 2
      vertex -6.25 -0.313 2
    endloop
  endfacet
  facet normal 0 0 1
    outer loop
      vertex -0.625 4.951 2
      vertex -1.313 4.804 2
      vertex -4.891 1.04 2
    endloop
  endfacet
  facet normal 0 0 1
    outer loop
      vertex -4.319 2.466 2
      vertex -4.859 1.336 2
      vertex -2.475 4.341 2
    endloop
  endfacet
  facet normal 0 0 1
    outer loop
      vertex -1.942 -0.479 2
      vertex -2 0 2
      vertex -6.25 -0.313 2
    endloop
  endfacet
  facet normal 0 0 1
    outer loop
      vertex -4.045 2.939 2
      vertex -4.319 2.466 2
      vertex -3.939 3.056 2
    endloop
  endfacet
  facet normal 0 0 1
    outer loop
      vertex -4.802 1.313 2
      vertex -1.313 4.804 2
      vertex -1.336 4.859 2
    endloop
  endfacet
  facet normal 0 0 1
    outer loop
      vertex -4.802 1.313 2
      vertex -4.891 1.04 2
      vertex -1.313 4.804 2
    endloop
  endfacet
  facet normal 0 0 1
    outer loop
      vertex -5.894 2.103 2
      vertex -4.319 2.466 2
      vertex -4.38 2.491 2
    endloop
  endfacet
  facet normal 0 0 1
    outer loop
      vertex -4.891 1.04 2
      vertex 0.625 4.951 2
      vertex 0.625 5 2
    endloop
  endfacet
  facet normal 0 0 1
    outer loop
      vertex -5.894 2.103 2
      vertex -4.38 2.491 2
      vertex -5.654 2.681 2
    endloop
  endfacet
  facet normal 0 0 1
    outer loop
      vertex -4.891 1.04 2
      vertex -4.934 0.625 2
      vertex 1.313 4.804 2
    endloop
  endfacet
  facet normal 0 0 1
    outer loop
      vertex -4.641 4.198 2
      vertex -3.977 3.094 2
      vertex -4.198 4.641 2
    endloop
  endfacet
  facet normal 0 0 1
    outer loop
      vertex -4.319 2.466 2
      vertex -2.475 4.341 2
      vertex -2.5 4.33 2
    endloop
  endfacet
  facet normal 0 0 1
    outer loop
      vertex -3.094 3.977 2
      vertex -4.198 4.641 2
      vertex -3.977 3.094 2
    endloop
  endfacet
  facet normal 0 0 1
    outer loop
      vertex -4.319 2.466 2
      vertex -3.094 3.977 2
      vertex -3.939 3.056 2
    endloop
  endfacet
  facet normal 0 0 1
    outer loop
      vertex -4.319 2.466 2
      vertex -2.5 4.33 2
      vertex -3.049 3.932 2
    endloop
  endfacet
  facet normal 0 0 1
    outer loop
      vertex -4.891 1.04 2
      vertex 1.313 4.804 2
      vertex 0.625 4.951 2
    endloop
  endfacet
  facet normal 0 0 1
    outer loop
      vertex -2 0 2
      vertex -1.942 0.479 2
      vertex -6.25 -0.313 2
    endloop
  endfacet
  facet normal 0 0 1
    outer loop
      vertex 1.942 -0.479 2
      vertex 4.934 -0.625 2
      vertex 5 -0.625 2
    endloop
  endfacet
  facet normal 0 0 1
    outer loop
      vertex -3.094 3.977 2
      vertex -3.977 3.094 2
      vertex -3.939 3.056 2
    endloop
  endfacet
  facet normal 0 0 1
    outer loop
      vertex -4.319 2.466 2
      vertex -3.049 3.932 2
      vertex -3.094 3.977 2
    endloop
  endfacet
  facet normal 0 0 1
    outer loop
      vertex -4.891 1.04 2
      vertex 0.625 5 2
      vertex -0.625 4.951 2
    endloop
  endfacet
  facet normal 0 0 1
    outer loop
      vertex -1.336 4.859 2
      vertex -2.491 4.38 2
      vertex -2.475 4.341 2
    endloop
  endfacet
  facet normal 0 0 1
    outer loop
      vertex 1.771 0.929 2
      vertex 4.802 1.313 2
      vertex 4.859 1.336 2
    endloop
  endfacet
  facet normal 0 0 1
    outer loop
      vertex 1.497 1.326 2
      vertex 1.771 0.929 2
      vertex 4.859 1.336 2
    endloop
  endfacet
  facet normal 0 0 1
    outer loop
      vertex 0.241 1.985 2
      vertex 3.939 3.056 2
      vertex 3.977 3.094 2
    endloop
  endfacet
  facet normal 0 0 1
    outer loop
      vertex -0.241 1.985 2
      vertex 0.241 1.985 2
      vertex 4.641 4.198 2
    endloop
  endfacet
  facet normal 0 0 1
    outer loop
      vertex -6.25 -0.313 2
      vertex -1.497 1.326 2
      vertex -1.136 1.646 2
    endloop
  endfacet
  facet normal 0 0 1
    outer loop
      vertex -6.25 -0.313 2
      vertex -0.709 1.87 2
      vertex 4.641 4.198 2
    endloop
  endfacet
  facet normal 0 0 1
    outer loop
      vertex -6.25 -0.313 2
      vertex -1.136 1.646 2
      vertex -0.709 1.87 2
    endloop
  endfacet
  facet normal 0 0 1
    outer loop
      vertex 1.942 -0.479 2
      vertex 1.771 -0.929 2
      vertex 4.891 -1.04 2
    endloop
  endfacet
  facet normal 0 0 1
    outer loop
      vertex 0.241 1.985 2
      vertex 0.709 1.87 2
      vertex 4.045 2.939 2
    endloop
  endfacet
  facet normal 0 0 1
    outer loop
      vertex 1.136 -1.646 2
      vertex 0.709 -1.87 2
      vertex 4.319 -2.466 2
    endloop
  endfacet
  facet normal 0 0 1
    outer loop
      vertex 0.709 1.87 2
      vertex 1.136 1.646 2
      vertex 4.319 2.466 2
    endloop
  endfacet
  facet normal 0 0 1
    outer loop
      vertex 3.049 3.932 2
      vertex 2.5 4.33 2
      vertex -6.25 -0.313 2
    endloop
  endfacet
  facet normal 0 0 1
    outer loop
      vertex -1.771 0.929 2
      vertex -1.497 1.326 2
      vertex -6.25 -0.313 2
    endloop
  endfacet
  facet normal 0 0 1
    outer loop
      vertex 1.136 1.646 2
      vertex 5.654 2.681 2
      vertex 4.319 2.466 2
    endloop
  endfacet
  facet normal 0 0 1
    outer loop
      vertex 1.497 1.326 2
      vertex 4.859 1.336 2
      vertex 5.894 2.103 2
    endloop
  endfacet
  facet normal 0 0 1
    outer loop
      vertex -1.942 0.479 2
      vertex -1.771 0.929 2
      vertex -6.25 -0.313 2
    endloop
  endfacet
  facet normal 0 0 1
    outer loop
      vertex 1.771 0.929 2
      vertex 4.891 1.04 2
      vertex 4.802 1.313 2
    endloop
  endfacet
  facet normal 0 0 1
    outer loop
      vertex 1.942 0.479 2
      vertex 6.25 0.313 2
      vertex 5 0.625 2
    endloop
  endfacet
  facet normal 0 0 1
    outer loop
      vertex 1.942 0.479 2
      vertex 5 0.625 2
      vertex 4.934 0.625 2
    endloop
  endfacet
  facet normal 0 0 1
    outer loop
      vertex 1.497 -1.326 2
      vertex 1.136 -1.646 2
      vertex 5.894 -2.103 2
    endloop
  endfacet
  facet normal 0 0 1
    outer loop
      vertex -1.497 -1.326 2
      vertex -6.25 -0.313 2
      vertex -4.934 -0.625 2
    endloop
  endfacet
  facet normal 0 0 1
    outer loop
      vertex -1.497 -1.326 2
      vertex -1.771 -0.929 2
      vertex -6.25 -0.313 2
    endloop
  endfacet
  facet normal 0 0 1
    outer loop
      vertex -0.709 -1.87 2
      vertex 4.641 -4.198 2
      vertex -0.241 -1.985 2
    endloop
  endfacet
  facet normal 0 0 1
    outer loop
      vertex -4.934 -0.625 2
      vertex 4.641 -4.198 2
      vertex -0.709 -1.87 2
    endloop
  endfacet
  facet normal 0 0 1
    outer loop
      vertex -1.771 -0.929 2
      vertex -1.942 -0.479 2
      vertex -6.25 -0.313 2
    endloop
  endfacet
  facet normal 0 0 1
    outer loop
      vertex -1.136 -1.646 2
      vertex -1.497 -1.326 2
      vertex -4.934 -0.625 2
    endloop
  endfacet
  facet normal 0 0 1
    outer loop
      vertex 0.709 -1.87 2
      vertex 0.241 -1.985 2
      vertex 4.045 -2.939 2
    endloop
  endfacet
  facet normal 0 0 1
    outer loop
      vertex 1.771 -0.929 2
      vertex 4.859 -1.336 2
      vertex 4.802 -1.313 2
    endloop
  endfacet
  facet normal 0 0 1
    outer loop
      vertex 0.709 1.87 2
      vertex 4.319 2.466 2
      vertex 4.045 2.939 2
    endloop
  endfacet
  facet normal 0 0 1
    outer loop
      vertex 1.136 1.646 2
      vertex 1.497 1.326 2
      vertex 5.654 2.681 2
    endloop
  endfacet
  facet normal 0 0 1
    outer loop
      vertex -2.681 5.654 2
      vertex -2.491 4.38 2
      vertex -2.103 5.894 2
    endloop
  endfacet
  facet normal 0 0 1
    outer loop
      vertex -5.894 2.103 2
      vertex -4.859 1.336 2
      vertex -4.319 2.466 2
    endloop
  endfacet
  facet normal -0.24217 -0.970234 0
    outer loop
      vertex -6.25 -0.313 0
      vertex -5 -0.625 0
      vertex -5 -0.625 2
    endloop
  endfacet
  facet normal -0.24217 -0.970234 0
    outer loop
      vertex -6.25 -0.313 2
      vertex -6.25 -0.313 0
      vertex -5 -0.625 2
    endloop
  endfacet
  facet normal -1 0 0
    outer loop
      vertex -6.25 -0.313 2
      vertex -6.25 0.313 2
      vertex -6.25 -0.313 0
    endloop
  endfacet
  facet normal -1 0 0
    outer loop
      vertex -6.25 -0.313 0
      vertex -6.25 0.313 2
      vertex -6.25 0.313 0
    endloop
  endfacet
  facet normal 0 -1 0
    outer loop
      vertex -5 -0.625 0
      vertex -4.934 -0.625 0
      vertex -4.934 -0.625 2
    endloop
  endfacet
  facet normal 0 -1 0
    outer loop
      vertex -5 -0.625 2
      vertex -5 -0.625 0
      vertex -4.934 -0.625 2
    endloop
  endfacet
  facet normal -0.994675 -0.103063 0
    outer loop
      vertex -4.891 -1.04 0
      vertex -4.891 -1.04 2
      vertex -4.934 -0.625 0
    endloop
  endfacet
  facet normal -0.994675 -0.103063 0
    outer loop
      vertex -4.934 -0.625 0
      vertex -4.891 -1.04 2
      vertex -4.934 -0.625 2
    endloop
  endfacet
  facet normal -0.950752 -0.309952 0
    outer loop
      vertex -4.802 -1.313 0
      vertex -4.802 -1.313 2
      vertex -4.891 -1.04 0
    endloop
  endfacet
  facet normal -0.950752 -0.309952 0
    outer loop
      vertex -4.891 -1.04 0
      vertex -4.802 -1.313 2
      vertex -4.891 -1.04 2
    endloop
  endfacet
  facet normal -0.374194 0.92735 0
    outer loop
      vertex -4.859 -1.336 2
      vertex -4.802 -1.313 2
      vertex -4.859 -1.336 0
    endloop
  endfacet
  facet normal -0.374194 0.92735 0
    outer loop
      vertex -4.859 -1.336 0
      vertex -4.802 -1.313 2
      vertex -4.802 -1.313 0
    endloop
  endfacet
  facet normal -0.595395 0.803433 0
    outer loop
      vertex -5.894 -2.103 2
      vertex -4.859 -1.336 2
      vertex -5.894 -2.103 0
    endloop
  endfacet
  facet normal -0.595395 0.803433 0
    outer loop
      vertex -5.894 -2.103 0
      vertex -4.859 -1.336 2
      vertex -4.859 -1.336 0
    endloop
  endfacet
  facet normal -0.923549 -0.383481 0
    outer loop
      vertex -5.654 -2.681 0
      vertex -5.654 -2.681 2
      vertex -5.894 -2.103 0
    endloop
  endfacet
  facet normal -0.923549 -0.383481 0
    outer loop
      vertex -5.894 -2.103 0
      vertex -5.654 -2.681 2
      vertex -5.894 -2.103 2
    endloop
  endfacet
  facet normal 0.147505 -0.989061 0
    outer loop
      vertex -5.654 -2.681 0
      vertex -4.38 -2.491 0
      vertex -4.38 -2.491 2
    endloop
  endfacet
  facet normal 0.147505 -0.989061 0
    outer loop
      vertex -5.654 -2.681 2
      vertex -5.654 -2.681 0
      vertex -4.38 -2.491 2
    endloop
  endfacet
  facet normal 0.379223 -0.925305 0
    outer loop
      vertex -4.38 -2.491 0
      vertex -4.319 -2.466 0
      vertex -4.319 -2.466 2
    endloop
  endfacet
  facet normal 0.379223 -0.925305 0
    outer loop
      vertex -4.38 -2.491 2
      vertex -4.38 -2.491 0
      vertex -4.319 -2.466 2
    endloop
  endfacet
  facet normal -0.865301 -0.501253 0
    outer loop
      vertex -4.045 -2.939 0
      vertex -4.045 -2.939 2
      vertex -4.319 -2.466 0
    endloop
  endfacet
  facet normal -0.865301 -0.501253 0
    outer loop
      vertex -4.319 -2.466 0
      vertex -4.045 -2.939 2
      vertex -4.319 -2.466 2
    endloop
  endfacet
  facet normal -0.741085 -0.671411 0
    outer loop
      vertex -3.939 -3.056 0
      vertex -3.939 -3.056 2
      vertex -4.045 -2.939 0
    endloop
  endfacet
  facet normal -0.741085 -0.671411 0
    outer loop
      vertex -4.045 -2.939 0
      vertex -3.939 -3.056 2
      vertex -4.045 -2.939 2
    endloop
  endfacet
  facet normal -0.707107 0.707107 0
    outer loop
      vertex -3.977 -3.094 2
      vertex -3.939 -3.056 2
      vertex -3.977 -3.094 0
    endloop
  endfacet
  facet normal -0.707107 0.707107 0
    outer loop
      vertex -3.977 -3.094 0
      vertex -3.939 -3.056 2
      vertex -3.939 -3.056 0
    endloop
  endfacet
  facet normal -0.856945 0.515409 0
    outer loop
      vertex -4.641 -4.198 2
      vertex -3.977 -3.094 2
      vertex -4.641 -4.198 0
    endloop
  endfacet
  facet normal -0.856945 0.515409 0
    outer loop
      vertex -4.641 -4.198 0
      vertex -3.977 -3.094 2
      vertex -3.977 -3.094 0
    endloop
  endfacet
  facet normal -0.707107 -0.707107 0
    outer loop
      vertex -4.641 -4.198 0
      vertex -4.198 -4.641 0
      vertex -4.198 -4.641 2
    endloop
  endfacet
  facet normal -0.707107 -0.707107 0
    outer loop
      vertex -4.641 -4.198 2
      vertex -4.641 -4.198 0
      vertex -4.198 -4.641 2
    endloop
  endfacet
  facet normal 0.515409 -0.856945 0
    outer loop
      vertex -4.198 -4.641 0
      vertex -3.094 -3.977 0
      vertex -3.094 -3.977 2
    endloop
  endfacet
  facet normal 0.515409 -0.856945 0
    outer loop
      vertex -4.198 -4.641 2
      vertex -4.198 -4.641 0
      vertex -3.094 -3.977 2
    endloop
  endfacet
  facet normal 0.707107 -0.707107 0
    outer loop
      vertex -3.094 -3.977 0
      vertex -3.049 -3.932 0
      vertex -3.049 -3.932 2
    endloop
  endfacet
  facet normal 0.707107 -0.707107 0
    outer loop
      vertex -3.094 -3.977 2
      vertex -3.094 -3.977 0
      vertex -3.049 -3.932 2
    endloop
  endfacet
  facet normal -0.586943 -0.809628 0
    outer loop
      vertex -3.049 -3.932 0
      vertex -2.5 -4.33 0
      vertex -2.5 -4.33 2
    endloop
  endfacet
  facet normal -0.586943 -0.809628 0
    outer loop
      vertex -3.049 -3.932 2
      vertex -3.049 -3.932 0
      vertex -2.5 -4.33 2
    endloop
  endfacet
  facet normal -0.402739 -0.915315 0
    outer loop
      vertex -2.5 -4.33 0
      vertex -2.475 -4.341 0
      vertex -2.475 -4.341 2
    endloop
  endfacet
  facet normal -0.402739 -0.915315 0
    outer loop
      vertex -2.5 -4.33 2
      vertex -2.5 -4.33 0
      vertex -2.475 -4.341 2
    endloop
  endfacet
  facet normal -0.925169 0.379556 0
    outer loop
      vertex -2.491 -4.38 2
      vertex -2.475 -4.341 2
      vertex -2.491 -4.38 0
    endloop
  endfacet
  facet normal -0.925169 0.379556 0
    outer loop
      vertex -2.491 -4.38 0
      vertex -2.475 -4.341 2
      vertex -2.475 -4.341 0
    endloop
  endfacet
  facet normal -0.989061 0.147505 0
    outer loop
      vertex -2.681 -5.654 2
      vertex -2.491 -4.38 2
      vertex -2.681 -5.654 0
    endloop
  endfacet
  facet normal -0.989061 0.147505 0
    outer loop
      vertex -2.681 -5.654 0
      vertex -2.491 -4.38 2
      vertex -2.491 -4.38 0
    endloop
  endfacet
  facet normal -0.383481 -0.923549 0
    outer loop
      vertex -2.681 -5.654 0
      vertex -2.103 -5.894 0
      vertex -2.103 -5.894 2
    endloop
  endfacet
  facet normal -0.383481 -0.923549 0
    outer loop
      vertex -2.681 -5.654 2
      vertex -2.681 -5.654 0
      vertex -2.103 -5.894 2
    endloop
  endfacet
  facet normal 0.803433 -0.595395 0
    outer loop
      vertex -2.103 -5.894 0
      vertex -1.336 -4.859 0
      vertex -1.336 -4.859 2
    endloop
  endfacet
  facet normal 0.803433 -0.595395 0
    outer loop
      vertex -2.103 -5.894 2
      vertex -2.103 -5.894 0
      vertex -1.336 -4.859 2
    endloop
  endfacet
  facet normal 0.92258 -0.385806 0
    outer loop
      vertex -1.336 -4.859 0
      vertex -1.313 -4.804 0
      vertex -1.313 -4.804 2
    endloop
  endfacet
  facet normal 0.92258 -0.385806 0
    outer loop
      vertex -1.336 -4.859 2
      vertex -1.336 -4.859 0
      vertex -1.313 -4.804 2
    endloop
  endfacet
  facet normal -0.208947 -0.977927 0
    outer loop
      vertex -1.313 -4.804 0
      vertex -0.625 -4.951 0
      vertex -0.625 -4.951 2
    endloop
  endfacet
  facet normal -0.208947 -0.977927 0
    outer loop
      vertex -1.313 -4.804 2
      vertex -1.313 -4.804 0
      vertex -0.625 -4.951 2
    endloop
  endfacet
  facet normal -1 0 0
    outer loop
      vertex -0.625 -5 2
      vertex -0.625 -4.951 2
      vertex -0.625 -5 0
    endloop
  endfacet
  facet normal -1 0 0
    outer loop
      vertex -0.625 -5 0
      vertex -0.625 -4.951 2
      vertex -0.625 -4.951 0
    endloop
  endfacet
  facet normal -0.970234 -0.24217 0
    outer loop
      vertex -0.313 -6.25 0
      vertex -0.313 -6.25 2
      vertex -0.625 -5 0
    endloop
  endfacet
  facet normal -0.970234 -0.24217 0
    outer loop
      vertex -0.625 -5 0
      vertex -0.313 -6.25 2
      vertex -0.625 -5 2
    endloop
  endfacet
  facet normal 0 -1 0
    outer loop
      vertex -0.313 -6.25 0
      vertex 0.313 -6.25 0
      vertex 0.313 -6.25 2
    endloop
  endfacet
  facet normal 0 -1 0
    outer loop
      vertex -0.313 -6.25 2
      vertex -0.313 -6.25 0
      vertex 0.313 -6.25 2
    endloop
  endfacet
  facet normal 0.970234 -0.24217 0
    outer loop
      vertex 0.313 -6.25 0
      vertex 0.625 -5 0
      vertex 0.625 -5 2
    endloop
  endfacet
  facet normal 0.970234 -0.24217 0
    outer loop
      vertex 0.313 -6.25 2
      vertex 0.313 -6.25 0
      vertex 0.625 -5 2
    endloop
  endfacet
  facet normal 1 0 0
    outer loop
      vertex 0.625 -5 0
      vertex 0.625 -4.951 0
      vertex 0.625 -4.951 2
    endloop
  endfacet
  facet normal 1 0 0
    outer loop
      vertex 0.625 -5 2
      vertex 0.625 -5 0
      vertex 0.625 -4.951 2
    endloop
  endfacet
  facet normal 0.208947 -0.977927 0
    outer loop
      vertex 0.625 -4.951 0
      vertex 1.313 -4.804 0
      vertex 1.313 -4.804 2
    endloop
  endfacet
  facet normal 0.208947 -0.977927 0
    outer loop
      vertex 0.625 -4.951 2
      vertex 0.625 -4.951 0
      vertex 1.313 -4.804 2
    endloop
  endfacet
  facet normal -0.92258 -0.385806 0
    outer loop
      vertex 1.336 -4.859 0
      vertex 1.336 -4.859 2
      vertex 1.313 -4.804 0
    endloop
  endfacet
  facet normal -0.92258 -0.385806 0
    outer loop
      vertex 1.313 -4.804 0
      vertex 1.336 -4.859 2
      vertex 1.313 -4.804 2
    endloop
  endfacet
  facet normal -0.803433 -0.595395 0
    outer loop
      vertex 2.103 -5.894 0
      vertex 2.103 -5.894 2
      vertex 1.336 -4.859 0
    endloop
  endfacet
  facet normal -0.803433 -0.595395 0
    outer loop
      vertex 1.336 -4.859 0
      vertex 2.103 -5.894 2
      vertex 1.336 -4.859 2
    endloop
  endfacet
  facet normal 0.383481 -0.923549 0
    outer loop
      vertex 2.103 -5.894 0
      vertex 2.681 -5.654 0
      vertex 2.681 -5.654 2
    endloop
  endfacet
  facet normal 0.383481 -0.923549 0
    outer loop
      vertex 2.103 -5.894 2
      vertex 2.103 -5.894 0
      vertex 2.681 -5.654 2
    endloop
  endfacet
  facet normal 0.989061 0.147505 0
    outer loop
      vertex 2.491 -4.38 0
      vertex 2.491 -4.38 2
      vertex 2.681 -5.654 2
    endloop
  endfacet
  facet normal 0.989061 0.147505 0
    outer loop
      vertex 2.681 -5.654 0
      vertex 2.491 -4.38 0
      vertex 2.681 -5.654 2
    endloop
  endfacet
  facet normal 0.925169 0.379556 0
    outer loop
      vertex 2.475 -4.341 0
      vertex 2.475 -4.341 2
      vertex 2.491 -4.38 2
    endloop
  endfacet
  facet normal 0.925169 0.379556 0
    outer loop
      vertex 2.491 -4.38 0
      vertex 2.475 -4.341 0
      vertex 2.491 -4.38 2
    endloop
  endfacet
  facet normal 0.402739 -0.915315 0
    outer loop
      vertex 2.475 -4.341 0
      vertex 2.5 -4.33 0
      vertex 2.5 -4.33 2
    endloop
  endfacet
  facet normal 0.402739 -0.915315 0
    outer loop
      vertex 2.475 -4.341 2
      vertex 2.475 -4.341 0
      vertex 2.5 -4.33 2
    endloop
  endfacet
  facet normal 0.586943 -0.809628 0
    outer loop
      vertex 2.5 -4.33 0
      vertex 3.049 -3.932 0
      vertex 3.049 -3.932 2
    endloop
  endfacet
  facet normal 0.586943 -0.809628 0
    outer loop
      vertex 2.5 -4.33 2
      vertex 2.5 -4.33 0
      vertex 3.049 -3.932 2
    endloop
  endfacet
  facet normal -0.707107 -0.707107 0
    outer loop
      vertex 3.049 -3.932 0
      vertex 3.094 -3.977 0
      vertex 3.094 -3.977 2
    endloop
  endfacet
  facet normal -0.707107 -0.707107 0
    outer loop
      vertex 3.049 -3.932 2
      vertex 3.049 -3.932 0
      vertex 3.094 -3.977 2
    endloop
  endfacet
  facet normal -0.515409 -0.856945 0
    outer loop
      vertex 3.094 -3.977 0
      vertex 4.198 -4.641 0
      vertex 4.198 -4.641 2
    endloop
  endfacet
  facet normal -0.515409 -0.856945 0
    outer loop
      vertex 3.094 -3.977 2
      vertex 3.094 -3.977 0
      vertex 4.198 -4.641 2
    endloop
  endfacet
  facet normal 0.707107 -0.707107 0
    outer loop
      vertex 4.198 -4.641 0
      vertex 4.641 -4.198 0
      vertex 4.641 -4.198 2
    endloop
  endfacet
  facet normal 0.707107 -0.707107 0
    outer loop
      vertex 4.198 -4.641 2
      vertex 4.198 -4.641 0
      vertex 4.641 -4.198 2
    endloop
  endfacet
  facet normal 0.856945 0.515409 0
    outer loop
      vertex 3.977 -3.094 0
      vertex 3.977 -3.094 2
      vertex 4.641 -4.198 2
    endloop
  endfacet
  facet normal 0.856945 0.515409 0
    outer loop
      vertex 4.641 -4.198 0
      vertex 3.977 -3.094 0
      vertex 4.641 -4.198 2
    endloop
  endfacet
  facet normal 0.707107 0.707107 0
    outer loop
      vertex 3.939 -3.056 2
      vertex 3.977 -3.094 2
      vertex 3.939 -3.056 0
    endloop
  endfacet
  facet normal 0.707107 0.707107 0
    outer loop
      vertex 3.939 -3.056 0
      vertex 3.977 -3.094 2
      vertex 3.977 -3.094 0
    endloop
  endfacet
  facet normal 0.741085 -0.671411 0
    outer loop
      vertex 3.939 -3.056 0
      vertex 4.045 -2.939 0
      vertex 4.045 -2.939 2
    endloop
  endfacet
  facet normal 0.741085 -0.671411 0
    outer loop
      vertex 3.939 -3.056 2
      vertex 3.939 -3.056 0
      vertex 4.045 -2.939 2
    endloop
  endfacet
  facet normal 0.865301 -0.501253 0
    outer loop
      vertex 4.045 -2.939 0
      vertex 4.319 -2.466 0
      vertex 4.319 -2.466 2
    endloop
  endfacet
  facet normal 0.865301 -0.501253 0
    outer loop
      vertex 4.045 -2.939 2
      vertex 4.045 -2.939 0
      vertex 4.319 -2.466 2
    endloop
  endfacet
  facet normal -0.379223 -0.925305 0
    outer loop
      vertex 4.319 -2.466 0
      vertex 4.38 -2.491 0
      vertex 4.38 -2.491 2
    endloop
  endfacet
  facet normal -0.379223 -0.925305 0
    outer loop
      vertex 4.319 -2.466 2
      vertex 4.319 -2.466 0
      vertex 4.38 -2.491 2
    endloop
  endfacet
  facet normal -0.147505 -0.989061 0
    outer loop
      vertex 4.38 -2.491 0
      vertex 5.654 -2.681 0
      vertex 5.654 -2.681 2
    endloop
  endfacet
  facet normal -0.147505 -0.989061 0
    outer loop
      vertex 4.38 -2.491 2
      vertex 4.38 -2.491 0
      vertex 5.654 -2.681 2
    endloop
  endfacet
  facet normal 0.923549 -0.383481 0
    outer loop
      vertex 5.654 -2.681 0
      vertex 5.894 -2.103 0
      vertex 5.894 -2.103 2
    endloop
  endfacet
  facet normal 0.923549 -0.383481 0
    outer loop
      vertex 5.654 -2.681 2
      vertex 5.654 -2.681 0
      vertex 5.894 -2.103 2
    endloop
  endfacet
  facet normal 0.595395 0.803433 0
    outer loop
      vertex 4.859 -1.336 2
      vertex 5.894 -2.103 2
      vertex 4.859 -1.336 0
    endloop
  endfacet
  facet normal 0.595395 0.803433 0
    outer loop
      vertex 4.859 -1.336 0
      vertex 5.894 -2.103 2
      vertex 5.894 -2.103 0
    endloop
  endfacet
  facet normal 0.374194 0.92735 0
    outer loop
      vertex 4.802 -1.313 2
      vertex 4.859 -1.336 2
      vertex 4.802 -1.313 0
    endloop
  endfacet
  facet normal 0.374194 0.92735 0
    outer loop
      vertex 4.802 -1.313 0
      vertex 4.859 -1.336 2
      vertex 4.859 -1.336 0
    endloop
  endfacet
  facet normal 0.950752 -0.309952 0
    outer loop
      vertex 4.802 -1.313 0
      vertex 4.891 -1.04 0
      vertex 4.891 -1.04 2
    endloop
  endfacet
  facet normal 0.950752 -0.309952 0
    outer loop
      vertex 4.802 -1.313 2
      vertex 4.802 -1.313 0
      vertex 4.891 -1.04 2
    endloop
  endfacet
  facet normal 0.994675 -0.103063 0
    outer loop
      vertex 4.891 -1.04 0
      vertex 4.934 -0.625 0
      vertex 4.934 -0.625 2
    endloop
  endfacet
  facet normal 0.994675 -0.103063 0
    outer loop
      vertex 4.891 -1.04 2
      vertex 4.891 -1.04 0
      vertex 4.934 -0.625 2
    endloop
  endfacet
  facet normal 0 -1 0
    outer loop
      vertex 4.934 -0.625 0
      vertex 5 -0.625 0
      vertex 5 -0.625 2
    endloop
  endfacet
  facet normal 0 -1 0
    outer loop
      vertex 4.934 -0.625 2
      vertex 4.934 -0.625 0
      vertex 5 -0.625 2
    endloop
  endfacet
  facet normal 0.24217 -0.970234 0
    outer loop
      vertex 5 -0.625 0
      vertex 6.25 -0.313 0
      vertex 6.25 -0.313 2
    endloop
  endfacet
  facet normal 0.24217 -0.970234 0
    outer loop
      vertex 5 -0.625 2
      vertex 5 -0.625 0
      vertex 6.25 -0.313 2
    endloop
  endfacet
  facet normal 1 0 0
    outer loop
      vertex 6.25 -0.313 0
      vertex 6.25 0.313 0
      vertex 6.25 0.313 2
    endloop
  endfacet
  facet normal 1 0 0
    outer loop
      vertex 6.25 -0.313 2
      vertex 6.25 -0.313 0
      vertex 6.25 0.313 2
    endloop
  endfacet
  facet normal 0.24217 0.970234 0
    outer loop
      vertex 5 0.625 2
      vertex 6.25 0.313 2
      vertex 5 0.625 0
    endloop
  endfacet
  facet normal 0.24217 0.970234 0
    outer loop
      vertex 5 0.625 0
      vertex 6.25 0.313 2
      vertex 6.25 0.313 0
    endloop
  endfacet
  facet normal 0 1 0
    outer loop
      vertex 4.934 0.625 2
      vertex 5 0.625 2
      vertex 4.934 0.625 0
    endloop
  endfacet
  facet normal 0 1 0
    outer loop
      vertex 4.934 0.625 0
      vertex 5 0.625 2
      vertex 5 0.625 0
    endloop
  endfacet
  facet normal 0.994675 0.103063 0
    outer loop
      vertex 4.891 1.04 0
      vertex 4.891 1.04 2
      vertex 4.934 0.625 2
    endloop
  endfacet
  facet normal 0.994675 0.103063 0
    outer loop
      vertex 4.934 0.625 0
      vertex 4.891 1.04 0
      vertex 4.934 0.625 2
    endloop
  endfacet
  facet normal 0.950752 0.309952 0
    outer loop
      vertex 4.802 1.313 0
      vertex 4.802 1.313 2
      vertex 4.891 1.04 2
    endloop
  endfacet
  facet normal 0.950752 0.309952 0
    outer loop
      vertex 4.891 1.04 0
      vertex 4.802 1.313 0
      vertex 4.891 1.04 2
    endloop
  endfacet
  facet normal 0.374194 -0.92735 0
    outer loop
      vertex 4.802 1.313 0
      vertex 4.859 1.336 0
      vertex 4.859 1.336 2
    endloop
  endfacet
  facet normal 0.374194 -0.92735 0
    outer loop
      vertex 4.802 1.313 2
      vertex 4.802 1.313 0
      vertex 4.859 1.336 2
    endloop
  endfacet
  facet normal 0.595395 -0.803433 0
    outer loop
      vertex 4.859 1.336 0
      vertex 5.894 2.103 0
      vertex 5.894 2.103 2
    endloop
  endfacet
  facet normal 0.595395 -0.803433 0
    outer loop
      vertex 4.859 1.336 2
      vertex 4.859 1.336 0
      vertex 5.894 2.103 2
    endloop
  endfacet
  facet normal 0.923549 0.383481 0
    outer loop
      vertex 5.654 2.681 0
      vertex 5.654 2.681 2
      vertex 5.894 2.103 2
    endloop
  endfacet
  facet normal 0.923549 0.383481 0
    outer loop
      vertex 5.894 2.103 0
      vertex 5.654 2.681 0
      vertex 5.894 2.103 2
    endloop
  endfacet
  facet normal -0.147505 0.989061 0
    outer loop
      vertex 4.38 2.491 2
      vertex 5.654 2.681 2
      vertex 4.38 2.491 0
    endloop
  endfacet
  facet normal -0.147505 0.989061 0
    outer loop
      vertex 4.38 2.491 0
      vertex 5.654 2.681 2
      vertex 5.654 2.681 0
    endloop
  endfacet
  facet normal -0.379223 0.925305 0
    outer loop
      vertex 4.319 2.466 2
      vertex 4.38 2.491 2
      vertex 4.319 2.466 0
    endloop
  endfacet
  facet normal -0.379223 0.925305 0
    outer loop
      vertex 4.319 2.466 0
      vertex 4.38 2.491 2
      vertex 4.38 2.491 0
    endloop
  endfacet
  facet normal 0.865301 0.501253 0
    outer loop
      vertex 4.045 2.939 0
      vertex 4.045 2.939 2
      vertex 4.319 2.466 2
    endloop
  endfacet
  facet normal 0.865301 0.501253 0
    outer loop
      vertex 4.319 2.466 0
      vertex 4.045 2.939 0
      vertex 4.319 2.466 2
    endloop
  endfacet
  facet normal 0.741085 0.671411 0
    outer loop
      vertex 3.939 3.056 0
      vertex 3.939 3.056 2
      vertex 4.045 2.939 2
    endloop
  endfacet
  facet normal 0.741085 0.671411 0
    outer loop
      vertex 4.045 2.939 0
      vertex 3.939 3.056 0
      vertex 4.045 2.939 2
    endloop
  endfacet
  facet normal 0.707107 -0.707107 0
    outer loop
      vertex 3.939 3.056 0
      vertex 3.977 3.094 0
      vertex 3.977 3.094 2
    endloop
  endfacet
  facet normal 0.707107 -0.707107 0
    outer loop
      vertex 3.939 3.056 2
      vertex 3.939 3.056 0
      vertex 3.977 3.094 2
    endloop
  endfacet
  facet normal 0.856945 -0.515409 0
    outer loop
      vertex 3.977 3.094 0
      vertex 4.641 4.198 0
      vertex 4.641 4.198 2
    endloop
  endfacet
  facet normal 0.856945 -0.515409 0
    outer loop
      vertex 3.977 3.094 2
      vertex 3.977 3.094 0
      vertex 4.641 4.198 2
    endloop
  endfacet
  facet normal 0.707107 0.707107 0
    outer loop
      vertex 4.198 4.641 2
      vertex 4.641 4.198 2
      vertex 4.198 4.641 0
    endloop
  endfacet
  facet normal 0.707107 0.707107 0
    outer loop
      vertex 4.198 4.641 0
      vertex 4.641 4.198 2
      vertex 4.641 4.198 0
    endloop
  endfacet
  facet normal -0.515409 0.856945 0
    outer loop
      vertex 3.094 3.977 2
      vertex 4.198 4.641 2
      vertex 3.094 3.977 0
    endloop
  endfacet
  facet normal -0.515409 0.856945 0
    outer loop
      vertex 3.094 3.977 0
      vertex 4.198 4.641 2
      vertex 4.198 4.641 0
    endloop
  endfacet
  facet normal -0.707107 0.707107 0
    outer loop
      vertex 3.049 3.932 2
      vertex 3.094 3.977 2
      vertex 3.049 3.932 0
    endloop
  endfacet
  facet normal -0.707107 0.707107 0
    outer loop
      vertex 3.049 3.932 0
      vertex 3.094 3.977 2
      vertex 3.094 3.977 0
    endloop
  endfacet
  facet normal 0.586943 0.809628 0
    outer loop
      vertex 2.5 4.33 2
      vertex 3.049 3.932 2
      vertex 2.5 4.33 0
    endloop
  endfacet
  facet normal 0.586943 0.809628 0
    outer loop
      vertex 2.5 4.33 0
      vertex 3.049 3.932 2
      vertex 3.049 3.932 0
    endloop
  endfacet
  facet normal 0.402739 0.915315 0
    outer loop
      vertex 2.475 4.341 2
      vertex 2.5 4.33 2
      vertex 2.475 4.341 0
    endloop
  endfacet
  facet normal 0.402739 0.915315 0
    outer loop
      vertex 2.475 4.341 0
      vertex 2.5 4.33 2
      vertex 2.5 4.33 0
    endloop
  endfacet
  facet normal 0.925169 -0.379556 0
    outer loop
      vertex 2.475 4.341 0
      vertex 2.491 4.38 0
      vertex 2.491 4.38 2
    endloop
  endfacet
  facet normal 0.925169 -0.379556 0
    outer loop
      vertex 2.475 4.341 2
      vertex 2.475 4.341 0
      vertex 2.491 4.38 2
    endloop
  endfacet
  facet normal 0.989061 -0.147505 0
    outer loop
      vertex 2.491 4.38 0
      vertex 2.681 5.654 0
      vertex 2.681 5.654 2
    endloop
  endfacet
  facet normal 0.989061 -0.147505 0
    outer loop
      vertex 2.491 4.38 2
      vertex 2.491 4.38 0
      vertex 2.681 5.654 2
    endloop
  endfacet
  facet normal 0.383481 0.923549 0
    outer loop
      vertex 2.103 5.894 2
      vertex 2.681 5.654 2
      vertex 2.103 5.894 0
    endloop
  endfacet
  facet normal 0.383481 0.923549 0
    outer loop
      vertex 2.103 5.894 0
      vertex 2.681 5.654 2
      vertex 2.681 5.654 0
    endloop
  endfacet
  facet normal -0.803433 0.595395 0
    outer loop
      vertex 1.336 4.859 2
      vertex 2.103 5.894 2
      vertex 1.336 4.859 0
    endloop
  endfacet
  facet normal -0.803433 0.595395 0
    outer loop
      vertex 1.336 4.859 0
      vertex 2.103 5.894 2
      vertex 2.103 5.894 0
    endloop
  endfacet
  facet normal -0.92258 0.385806 0
    outer loop
      vertex 1.313 4.804 2
      vertex 1.336 4.859 2
      vertex 1.313 4.804 0
    endloop
  endfacet
  facet normal -0.92258 0.385806 0
    outer loop
      vertex 1.313 4.804 0
      vertex 1.336 4.859 2
      vertex 1.336 4.859 0
    endloop
  endfacet
  facet normal 0.208947 0.977927 0
    outer loop
      vertex 0.625 4.951 2
      vertex 1.313 4.804 2
      vertex 0.625 4.951 0
    endloop
  endfacet
  facet normal 0.208947 0.977927 0
    outer loop
      vertex 0.625 4.951 0
      vertex 1.313 4.804 2
      vertex 1.313 4.804 0
    endloop
  endfacet
  facet normal 1 0 0
    outer loop
      vertex 0.625 4.951 0
      vertex 0.625 5 0
      vertex 0.625 5 2
    endloop
  endfacet
  facet normal 1 0 0
    outer loop
      vertex 0.625 4.951 2
      vertex 0.625 4.951 0
      vertex 0.625 5 2
    endloop
  endfacet
  facet normal 0.970234 0.24217 0
    outer loop
      vertex 0.313 6.25 0
      vertex 0.313 6.25 2
      vertex 0.625 5 2
    endloop
  endfacet
  facet normal 0.970234 0.24217 0
    outer loop
      vertex 0.625 5 0
      vertex 0.313 6.25 0
      vertex 0.625 5 2
    endloop
  endfacet
  facet normal 0 1 0
    outer loop
      vertex -0.313 6.25 2
      vertex 0.313 6.25 2
      vertex -0.313 6.25 0
    endloop
  endfacet
  facet normal 0 1 0
    outer loop
      vertex -0.313 6.25 0
      vertex 0.313 6.25 2
      vertex 0.313 6.25 0
    endloop
  endfacet
  facet normal -0.970234 0.24217 0
    outer loop
      vertex -0.625 5 2
      vertex -0.313 6.25 2
      vertex -0.625 5 0
    endloop
  endfacet
  facet normal -0.970234 0.24217 0
    outer loop
      vertex -0.625 5 0
      vertex -0.313 6.25 2
      vertex -0.313 6.25 0
    endloop
  endfacet
  facet normal -1 0 0
    outer loop
      vertex -0.625 4.951 2
      vertex -0.625 5 2
      vertex -0.625 4.951 0
    endloop
  endfacet
  facet normal -1 0 0
    outer loop
      vertex -0.625 4.951 0
      vertex -0.625 5 2
      vertex -0.625 5 0
    endloop
  endfacet
  facet normal -0.208947 0.977927 0
    outer loop
      vertex -1.313 4.804 2
      vertex -0.625 4.951 2
      vertex -1.313 4.804 0
    endloop
  endfacet
  facet normal -0.208947 0.977927 0
    outer loop
      vertex -1.313 4.804 0
      vertex -0.625 4.951 2
      vertex -0.625 4.951 0
    endloop
  endfacet
  facet normal 0.92258 0.385806 0
    outer loop
      vertex -1.336 4.859 0
      vertex -1.336 4.859 2
      vertex -1.313 4.804 2
    endloop
  endfacet
  facet normal 0.92258 0.385806 0
    outer loop
      vertex -1.313 4.804 0
      vertex -1.336 4.859 0
      vertex -1.313 4.804 2
    endloop
  endfacet
  facet normal 0.803433 0.595395 0
    outer loop
      vertex -2.103 5.894 0
      vertex -2.103 5.894 2
      vertex -1.336 4.859 2
    endloop
  endfacet
  facet normal 0.803433 0.595395 0
    outer loop
      vertex -1.336 4.859 0
      vertex -2.103 5.894 0
      vertex -1.336 4.859 2
    endloop
  endfacet
  facet normal -0.383481 0.923549 0
    outer loop
      vertex -2.681 5.654 2
      vertex -2.103 5.894 2
      vertex -2.681 5.654 0
    endloop
  endfacet
  facet normal -0.383481 0.923549 0
    outer loop
      vertex -2.681 5.654 0
      vertex -2.103 5.894 2
      vertex -2.103 5.894 0
    endloop
  endfacet
  facet normal -0.989061 -0.147505 0
    outer loop
      vertex -2.491 4.38 0
      vertex -2.491 4.38 2
      vertex -2.681 5.654 0
    endloop
  endfacet
  facet normal -0.989061 -0.147505 0
    outer loop
      vertex -2.681 5.654 0
      vertex -2.491 4.38 2
      vertex -2.681 5.654 2
    endloop
  endfacet
  facet normal -0.925169 -0.379556 0
    outer loop
      vertex -2.475 4.341 0
      vertex -2.475 4.341 2
      vertex -2.491 4.38 0
    endloop
  endfacet
  facet normal -0.925169 -0.379556 0
    outer loop
      vertex -2.491 4.38 0
      vertex -2.475 4.341 2
      vertex -2.491 4.38 2
    endloop
  endfacet
  facet normal -0.402739 0.915315 0
    outer loop
      vertex -2.5 4.33 2
      vertex -2.475 4.341 2
      vertex -2.5 4.33 0
    endloop
  endfacet
  facet normal -0.402739 0.915315 0
    outer loop
      vertex -2.5 4.33 0
      vertex -2.475 4.341 2
      vertex -2.475 4.341 0
    endloop
  endfacet
  facet normal -0.586943 0.809628 0
    outer loop
      vertex -3.049 3.932 2
      vertex -2.5 4.33 2
      vertex -3.049 3.932 0
    endloop
  endfacet
  facet normal -0.586943 0.809628 0
    outer loop
      vertex -3.049 3.932 0
      vertex -2.5 4.33 2
      vertex -2.5 4.33 0
    endloop
  endfacet
  facet normal 0.707107 0.707107 0
    outer loop
      vertex -3.094 3.977 2
      vertex -3.049 3.932 2
      vertex -3.094 3.977 0
    endloop
  endfacet
  facet normal 0.707107 0.707107 0
    outer loop
      vertex -3.094 3.977 0
      vertex -3.049 3.932 2
      vertex -3.049 3.932 0
    endloop
  endfacet
  facet normal 0.515409 0.856945 0
    outer loop
      vertex -4.198 4.641 2
      vertex -3.094 3.977 2
      vertex -4.198 4.641 0
    endloop
  endfacet
  facet normal 0.515409 0.856945 0
    outer loop
      vertex -4.198 4.641 0
      vertex -3.094 3.977 2
      vertex -3.094 3.977 0
    endloop
  endfacet
  facet normal -0.707107 0.707107 0
    outer loop
      vertex -4.641 4.198 2
      vertex -4.198 4.641 2
      vertex -4.641 4.198 0
    endloop
  endfacet
  facet normal -0.707107 0.707107 0
    outer loop
      vertex -4.641 4.198 0
      vertex -4.198 4.641 2
      vertex -4.198 4.641 0
    endloop
  endfacet
  facet normal -0.856945 -0.515409 0
    outer loop
      vertex -3.977 3.094 0
      vertex -3.977 3.094 2
      vertex -4.641 4.198 0
    endloop
  endfacet
  facet normal -0.856945 -0.515409 0
    outer loop
      vertex -4.641 4.198 0
      vertex -3.977 3.094 2
      vertex -4.641 4.198 2
    endloop
  endfacet
  facet normal -0.707107 -0.707107 0
    outer loop
      vertex -3.977 3.094 0
      vertex -3.939 3.056 0
      vertex -3.939 3.056 2
    endloop
  endfacet
  facet normal -0.707107 -0.707107 0
    outer loop
      vertex -3.977 3.094 2
      vertex -3.977 3.094 0
      vertex -3.939 3.056 2
    endloop
  endfacet
  facet normal -0.741085 0.671411 0
    outer loop
      vertex -4.045 2.939 2
      vertex -3.939 3.056 2
      vertex -4.045 2.939 0
    endloop
  endfacet
  facet normal -0.741085 0.671411 0
    outer loop
      vertex -4.045 2.939 0
      vertex -3.939 3.056 2
      vertex -3.939 3.056 0
    endloop
  endfacet
  facet normal -0.865301 0.501253 0
    outer loop
      vertex -4.319 2.466 2
      vertex -4.045 2.939 2
      vertex -4.319 2.466 0
    endloop
  endfacet
  facet normal -0.865301 0.501253 0
    outer loop
      vertex -4.319 2.466 0
      vertex -4.045 2.939 2
      vertex -4.045 2.939 0
    endloop
  endfacet
  facet normal 0.379223 0.925305 0
    outer loop
      vertex -4.38 2.491 2
      vertex -4.319 2.466 2
      vertex -4.38 2.491 0
    endloop
  endfacet
  facet normal 0.379223 0.925305 0
    outer loop
      vertex -4.38 2.491 0
      vertex -4.319 2.466 2
      vertex -4.319 2.466 0
    endloop
  endfacet
  facet normal 0.147505 0.989061 0
    outer loop
      vertex -5.654 2.681 2
      vertex -4.38 2.491 2
      vertex -5.654 2.681 0
    endloop
  endfacet
  facet normal 0.147505 0.989061 0
    outer loop
      vertex -5.654 2.681 0
      vertex -4.38 2.491 2
      vertex -4.38 2.491 0
    endloop
  endfacet
  facet normal -0.923549 0.383481 0
    outer loop
      vertex -5.894 2.103 2
      vertex -5.654 2.681 2
      vertex -5.894 2.103 0
    endloop
  endfacet
  facet normal -0.923549 0.383481 0
    outer loop
      vertex -5.894 2.103 0
      vertex -5.654 2.681 2
      vertex -5.654 2.681 0
    endloop
  endfacet
  facet normal -0.595395 -0.803433 0
    outer loop
      vertex -5.894 2.103 0
      vertex -4.859 1.336 0
      vertex -4.859 1.336 2
    endloop
  endfacet
  facet normal -0.595395 -0.803433 0
    outer loop
      vertex -5.894 2.103 2
      vertex -5.894 2.103 0
      vertex -4.859 1.336 2
    endloop
  endfacet
  facet normal -0.374194 -0.92735 0
    outer loop
      vertex -4.859 1.336 0
      vertex -4.802 1.313 0
      vertex -4.802 1.313 2
    endloop
  endfacet
  facet normal -0.374194 -0.92735 0
    outer loop
      vertex -4.859 1.336 2
      vertex -4.859 1.336 0
      vertex -4.802 1.313 2
    endloop
  endfacet
  facet normal -0.950752 0.309952 0
    outer loop
      vertex -4.891 1.04 2
      vertex -4.802 1.313 2
      vertex -4.891 1.04 0
    endloop
  endfacet
  facet normal -0.950752 0.309952 0
    outer loop
      vertex -4.891 1.04 0
      vertex -4.802 1.313 2
      vertex -4.802 1.313 0
    endloop
  endfacet
  facet normal 0.992749 0.120208 0
    outer loop
      vertex -2 0 0
      vertex -2 0 2
      vertex -1.942 -0.479 2
    endloop
  endfacet
  facet normal 0.992749 0.120208 0
    outer loop
      vertex -1.942 -0.479 0
      vertex -2 0 0
      vertex -1.942 -0.479 2
    endloop
  endfacet
  facet normal 0.992749 -0.120208 0
    outer loop
      vertex -2 0 0
      vertex -1.942 0.479 0
      vertex -1.942 0.479 2
    endloop
  endfacet
  facet normal 0.992749 -0.120208 0
    outer loop
      vertex -2 0 2
      vertex -2 0 0
      vertex -1.942 0.479 2
    endloop
  endfacet
  facet normal 0.934784 -0.355218 0
    outer loop
      vertex -1.942 0.479 0
      vertex -1.771 0.929 0
      vertex -1.771 0.929 2
    endloop
  endfacet
  facet normal 0.934784 -0.355218 0
    outer loop
      vertex -1.942 0.479 2
      vertex -1.942 0.479 0
      vertex -1.771 0.929 2
    endloop
  endfacet
  facet normal 0.823012 -0.568024 0
    outer loop
      vertex -1.771 0.929 0
      vertex -1.497 1.326 0
      vertex -1.497 1.326 2
    endloop
  endfacet
  facet normal 0.823012 -0.568024 0
    outer loop
      vertex -1.771 0.929 2
      vertex -1.771 0.929 0
      vertex -1.497 1.326 2
    endloop
  endfacet
  facet normal 0.663334 -0.748324 0
    outer loop
      vertex -1.497 1.326 0
      vertex -1.136 1.646 0
      vertex -1.136 1.646 2
    endloop
  endfacet
  facet normal 0.663334 -0.748324 0
    outer loop
      vertex -1.497 1.326 2
      vertex -1.497 1.326 0
      vertex -1.136 1.646 2
    endloop
  endfacet
  facet normal 0.464549 -0.885547 0
    outer loop
      vertex -1.136 1.646 0
      vertex -0.709 1.87 0
      vertex -0.709 1.87 2
    endloop
  endfacet
  facet normal 0.464549 -0.885547 0
    outer loop
      vertex -1.136 1.646 2
      vertex -1.136 1.646 0
      vertex -0.709 1.87 2
    endloop
  endfacet
  facet normal 0.238628 -0.971111 0
    outer loop
      vertex -0.709 1.87 0
      vertex -0.241 1.985 0
      vertex -0.241 1.985 2
    endloop
  endfacet
  facet normal 0.238628 -0.971111 0
    outer loop
      vertex -0.709 1.87 2
      vertex -0.709 1.87 0
      vertex -0.241 1.985 2
    endloop
  endfacet
  facet normal 0 -1 0
    outer loop
      vertex -0.241 1.985 0
      vertex 0.241 1.985 0
      vertex 0.241 1.985 2
    endloop
  endfacet
  facet normal 0 -1 0
    outer loop
      vertex -0.241 1.985 2
      vertex -0.241 1.985 0
      vertex 0.241 1.985 2
    endloop
  endfacet
  facet normal -0.238628 -0.971111 0
    outer loop
      vertex 0.241 1.985 0
      vertex 0.709 1.87 0
      vertex 0.709 1.87 2
    endloop
  endfacet
  facet normal -0.238628 -0.971111 0
    outer loop
      vertex 0.241 1.985 2
      vertex 0.241 1.985 0
      vertex 0.709 1.87 2
    endloop
  endfacet
  facet normal -0.464549 -0.885547 0
    outer loop
      vertex 0.709 1.87 0
      vertex 1.136 1.646 0
      vertex 1.136 1.646 2
    endloop
  endfacet
  facet normal -0.464549 -0.885547 0
    outer loop
      vertex 0.709 1.87 2
      vertex 0.709 1.87 0
      vertex 1.136 1.646 2
    endloop
  endfacet
  facet normal -0.663334 -0.748324 0
    outer loop
      vertex 1.136 1.646 0
      vertex 1.497 1.326 0
      vertex 1.497 1.326 2
    endloop
  endfacet
  facet normal -0.663334 -0.748324 0
    outer loop
      vertex 1.136 1.646 2
      vertex 1.136 1.646 0
      vertex 1.497 1.326 2
    endloop
  endfacet
  facet normal -0.823012 -0.568024 0
    outer loop
      vertex 1.771 0.929 0
      vertex 1.771 0.929 2
      vertex 1.497 1.326 0
    endloop
  endfacet
  facet normal -0.823012 -0.568024 0
    outer loop
      vertex 1.497 1.326 0
      vertex 1.771 0.929 2
      vertex 1.497 1.326 2
    endloop
  endfacet
  facet normal -0.934784 -0.355218 0
    outer loop
      vertex 1.942 0.479 0
      vertex 1.942 0.479 2
      vertex 1.771 0.929 0
    endloop
  endfacet
  facet normal -0.934784 -0.355218 0
    outer loop
      vertex 1.771 0.929 0
      vertex 1.942 0.479 2
      vertex 1.771 0.929 2
    endloop
  endfacet
  facet normal -0.992749 -0.120208 0
    outer loop
      vertex 2 0 0
      vertex 2 0 2
      vertex 1.942 0.479 0
    endloop
  endfacet
  facet normal -0.992749 -0.120208 0
    outer loop
      vertex 1.942 0.479 0
      vertex 2 0 2
      vertex 1.942 0.479 2
    endloop
  endfacet
  facet normal -0.992749 0.120208 0
    outer loop
      vertex 1.942 -0.479 2
      vertex 2 0 2
      vertex 1.942 -0.479 0
    endloop
  endfacet
  facet normal -0.992749 0.120208 0
    outer loop
      vertex 1.942 -0.479 0
      vertex 2 0 2
      vertex 2 0 0
    endloop
  endfacet
  facet normal -0.934784 0.355218 0
    outer loop
      vertex 1.771 -0.929 2
      vertex 1.942 -0.479 2
      vertex 1.771 -0.929 0
    endloop
  endfacet
  facet normal -0.934784 0.355218 0
    outer loop
      vertex 1.771 -0.929 0
      vertex 1.942 -0.479 2
      vertex 1.942 -0.479 0
    endloop
  endfacet
  facet normal -0.823012 0.568024 0
    outer loop
      vertex 1.497 -1.326 2
      vertex 1.771 -0.929 2
      vertex 1.497 -1.326 0
    endloop
  endfacet
  facet normal -0.823012 0.568024 0
    outer loop
      vertex 1.497 -1.326 0
      vertex 1.771 -0.929 2
      vertex 1.771 -0.929 0
    endloop
  endfacet
  facet normal -0.663334 0.748324 0
    outer loop
      vertex 1.136 -1.646 2
      vertex 1.497 -1.326 2
      vertex 1.136 -1.646 0
    endloop
  endfacet
  facet normal -0.663334 0.748324 0
    outer loop
      vertex 1.136 -1.646 0
      vertex 1.497 -1.326 2
      vertex 1.497 -1.326 0
    endloop
  endfacet
  facet normal -0.464549 0.885547 0
    outer loop
      vertex 0.709 -1.87 2
      vertex 1.136 -1.646 2
      vertex 0.709 -1.87 0
    endloop
  endfacet
  facet normal -0.464549 0.885547 0
    outer loop
      vertex 0.709 -1.87 0
      vertex 1.136 -1.646 2
      vertex 1.136 -1.646 0
    endloop
  endfacet
  facet normal -0.238628 0.971111 0
    outer loop
      vertex 0.241 -1.985 2
      vertex 0.709 -1.87 2
      vertex 0.241 -1.985 0
    endloop
  endfacet
  facet normal -0.238628 0.971111 0
    outer loop
      vertex 0.241 -1.985 0
      vertex 0.709 -1.87 2
      vertex 0.709 -1.87 0
    endloop
  endfacet
  facet normal 0 1 0
    outer loop
      vertex -0.241 -1.985 2
      vertex 0.241 -1.985 2
      vertex -0.241 -1.985 0
    endloop
  endfacet
  facet normal 0 1 0
    outer loop
      vertex -0.241 -1.985 0
      vertex 0.241 -1.985 2
      vertex 0.241 -1.985 0
    endloop
  endfacet
  facet normal 0.238628 0.971111 0
    outer loop
      vertex -0.709 -1.87 2
      vertex -0.241 -1.985 2
      vertex -0.709 -1.87 0
    endloop
  endfacet
  facet normal 0.238628 0.971111 0
    outer loop
      vertex -0.709 -1.87 0
      vertex -0.241 -1.985 2
      vertex -0.241 -1.985 0
    endloop
  endfacet
  facet normal 0.464549 0.885547 0
    outer loop
      vertex -1.136 -1.646 2
      vertex -0.709 -1.87 2
      vertex -1.136 -1.646 0
    endloop
  endfacet
  facet normal 0.464549 0.885547 0
    outer loop
      vertex -1.136 -1.646 0
      vertex -0.709 -1.87 2
      vertex -0.709 -1.87 0
    endloop
  endfacet
  facet normal 0.663334 0.748324 0
    outer loop
      vertex -1.497 -1.326 2
      vertex -1.136 -1.646 2
      vertex -1.497 -1.326 0
    endloop
  endfacet
  facet normal 0.663334 0.748324 0
    outer loop
      vertex -1.497 -1.326 0
      vertex -1.136 -1.646 2
      vertex -1.136 -1.646 0
    endloop
  endfacet
  facet normal 0.823012 0.568024 0
    outer loop
      vertex -1.771 -0.929 0
      vertex -1.771 -0.929 2
      vertex -1.497 -1.326 2
    endloop
  endfacet
  facet normal 0.823012 0.568024 0
    outer loop
      vertex -1.497 -1.326 0
      vertex -1.771 -0.929 0
      vertex -1.497 -1.326 2
    endloop
  endfacet
  facet normal 0.934784 0.355218 0
    outer loop
      vertex -1.942 -0.479 0
      vertex -1.942 -0.479 2
      vertex -1.771 -0.929 2
    endloop
  endfacet
  facet normal 0.934784 0.355218 0
    outer loop
      vertex -1.771 -0.929 0
      vertex -1.942 -0.479 0
      vertex -1.771 -0.929 2
    endloop
  endfacet
endsolid OpenSCAD_Model
